<?xml version="1.0" standalone="no"?>
<svg xmlns:xlink="http://www.w3.org/1999/xlink" id="wave" style="transform:rotate(0deg); transition: 0.3s" viewBox="0 0 1440 300" version="1.1" xmlns="http://www.w3.org/2000/svg"><defs><linearGradient id="sw-gradient-0" x1="0" x2="0" y1="1" y2="0"><stop stop-color="rgba(63, 67, 63, 1)" offset="0%"/><stop stop-color="rgba(111.883, 111.883, 111.883, 1)" offset="100%"/></linearGradient></defs><path style="transform:translate(0, 0px); opacity:1" fill="url(#sw-gradient-0)" d="M0,210L80,185C160,160,320,110,480,120C640,130,800,200,960,215C1120,230,1280,190,1440,185C1600,180,1760,210,1920,215C2080,220,2240,200,2400,200C2560,200,2720,220,2880,190C3040,160,3200,80,3360,65C3520,50,3680,100,3840,110C4000,120,4160,90,4320,85C4480,80,4640,100,4800,110C4960,120,5120,120,5280,105C5440,90,5600,60,5760,70C5920,80,6080,130,6240,125C6400,120,6560,60,6720,40C6880,20,7040,40,7200,70C7360,100,7520,140,7680,130C7840,120,8000,60,8160,55C8320,50,8480,100,8640,135C8800,170,8960,190,9120,185C9280,180,9440,150,9600,155C9760,160,9920,200,10080,225C10240,250,10400,260,10560,230C10720,200,10880,130,11040,110C11200,90,11360,120,11440,135L11520,150L11520,300L11440,300C11360,300,11200,300,11040,300C10880,300,10720,300,10560,300C10400,300,10240,300,10080,300C9920,300,9760,300,9600,300C9440,300,9280,300,9120,300C8960,300,8800,300,8640,300C8480,300,8320,300,8160,300C8000,300,7840,300,7680,300C7520,300,7360,300,7200,300C7040,300,6880,300,6720,300C6560,300,6400,300,6240,300C6080,300,5920,300,5760,300C5600,300,5440,300,5280,300C5120,300,4960,300,4800,300C4640,300,4480,300,4320,300C4160,300,4000,300,3840,300C3680,300,3520,300,3360,300C3200,300,3040,300,2880,300C2720,300,2560,300,2400,300C2240,300,2080,300,1920,300C1760,300,1600,300,1440,300C1280,300,1120,300,960,300C800,300,640,300,480,300C320,300,160,300,80,300L0,300Z"/></svg>